<svg width="650" height="116" viewBox="0 0 650 116" fill="none" xmlns="http://www.w3.org/2000/svg">
<path fill-rule="evenodd" clip-rule="evenodd" d="M0 0H88.4729C98.0879 0 105.901 1.47301 111.907 4.39801C117.899 7.32801 120.902 11.165 120.902 15.91C120.902 22.782 111.983 27.259 94.1621 29.317C114.927 31.958 125.315 37.479 125.315 45.898C125.315 55.741 112.953 60.657 88.2461 60.657H0.000976562L22.269 46.749V14.181L0 0ZM53.5869 23.857H78.9609C85.801 23.857 89.231 21.765 89.231 17.595C89.231 13.03 85.728 10.755 78.7349 10.755H53.5859L53.5869 23.857ZM53.5869 49.902H78.6001C86.9551 49.902 91.1431 47.673 91.1431 43.196C91.1431 38.298 88.02 35.856 81.7539 35.856H53.5879L53.5869 49.902ZM239.283 14.136L260.662 0.563179L282.041 14.136V46.611L259.775 60.658H337.401C353.133 60.658 365.93 57.927 375.789 52.479C385.665 47.035 390.592 39.966 390.592 31.275C390.592 23.162 385.799 15.744 376.2 9.026C371.224 5.583 366.129 3.21502 360.925 1.92902C355.737 0.639015 348.579 0 339.493 0H261.549H259.775L201.911 0.00100708L222.128 14.137V37.237C222.128 42.185 220.354 45.794 216.82 48.052C213.286 50.31 207.614 51.449 199.832 51.449C192.28 51.449 186.774 50.326 183.346 48.068C179.902 45.822 178.189 42.213 178.189 37.236V14.136L198.406 0H124.602L146.868 14.136V40.088C146.868 47.067 151.433 52.755 160.548 57.138C169.679 61.52 181.481 63.717 195.965 63.717C210.662 63.717 221.553 61.792 228.637 57.927C235.735 54.057 239.283 48.112 239.283 40.088V14.136ZM313.36 48.657H328.238C338.736 48.657 345.698 47.506 349.157 45.215C352.599 42.924 354.329 38.298 354.329 31.368C354.329 17.627 345.743 10.755 328.559 10.755H313.359L313.36 48.657ZM473.909 0H394.189L416.454 14.136V46.611L394.188 60.658H471.817C487.544 60.658 500.345 57.927 510.204 52.479C520.076 47.035 525.008 39.966 525.008 31.275C525.008 23.162 520.214 15.744 510.612 9.026C505.64 5.583 500.541 3.21502 495.341 1.92902C490.153 0.639015 482.991 0 473.909 0ZM462.654 48.657H447.774V10.755H462.971C480.155 10.755 488.741 17.627 488.741 31.368C488.741 38.298 487.015 42.924 483.569 45.215C480.11 47.506 473.148 48.657 462.654 48.657ZM629.208 12.134L649.427 0H594.548L609.701 10.087L594.157 25.814L578.064 11.12L593.214 0H521.884L542.102 11.12L570.768 38.709V46.473L548.503 60.657H623.792L601.571 46.473V38.709L629.208 12.134ZM475.122 115.702V101.083L462.858 110.299H446.013V94.8L456.014 88.396H424.349H421.892H402.246L407.491 92.937L401.407 103.28L394.287 92.937L400.887 88.396H373.201L379.305 93.86L373.263 104.281L366.284 93.86L372.525 88.396H345.223L352.958 93.86L363.501 110.702L357.58 115.702H384.281L378.829 110.702L385.102 98.783L391.943 110.238L385.587 115.702H412.312L405.948 110.702L415.246 94.76L423.175 89.2172L431.893 94.8V109.38L421.892 115.702H475.122ZM328.678 93.38L335.217 88.396H302.929L309.334 93.38L298.089 109.318L291.108 114.863L285.888 111.739C284.599 108.927 283.232 106.901 281.799 105.652C280.365 104.398 278.311 103.446 275.627 102.783C283.533 101.859 287.486 99.662 287.486 96.2C287.486 94.397 286.489 92.814 284.489 91.451C282.489 90.084 279.88 89.198 276.664 88.802L270.265 88.375L265.266 88.396H232.173L242.197 94.779V109.359L232.173 115.702H266.326L256.302 109.359V105.22H262.947C265.943 105.22 267.856 105.806 268.682 106.982C270.006 108.83 271.495 111.739 273.145 115.702H290.051H292.51H315.553L307.313 110.096L308.534 108.216H324.253L325.496 110.096L316.011 115.702H350.415L340.1 109.318L328.678 93.38ZM311.192 103.719L316.011 96.317L321.153 103.719H311.192ZM256.302 99.817H265.248L268.027 99.78C271.036 99.78 272.546 98.788 272.546 96.801C272.546 95.503 272.054 94.637 271.065 94.185C270.083 93.742 268.149 93.518 265.281 93.518H256.303L256.302 99.817ZM214.135 88.396H174.307L184.331 94.779V109.44L174.307 115.702H214.031C225.154 115.702 230.718 113.49 230.718 109.058C230.718 105.27 226.041 102.784 216.695 101.596C224.717 100.664 228.733 98.654 228.733 95.561C228.733 93.421 227.382 91.695 224.684 90.377C221.98 89.059 218.462 88.396 214.135 88.396ZM209.852 99.138H198.43V93.238H209.75C212.898 93.238 214.477 94.263 214.477 96.318C214.477 98.194 212.932 99.138 209.852 99.138ZM209.689 110.86H198.43V104.536H211.109C213.929 104.536 215.335 105.635 215.335 107.84C215.335 109.855 213.451 110.86 209.689 110.86Z" fill="white"/>
</svg>
