<svg width="123" height="96" viewBox="0 0 123 96" fill="none" xmlns="http://www.w3.org/2000/svg">
<path fill-rule="evenodd" clip-rule="evenodd" d="M98.7372 21.8957V45.8739H122.899L112.857 51.9017L109.736 54.9027L118.265 60.3463H98.7372V67.3322L97.6068 70.0672L97.3005 70.3783C92.223 75.5418 86.833 80.2699 80.9353 84.4784C75.0378 88.6872 68.7917 92.2688 62.314 95.5012L61.3144 96L60.3147 95.5012C53.8372 92.269 47.5913 88.6872 41.6941 84.4791C35.7959 80.2699 30.4062 75.5418 25.3276 70.3783L25.0219 70.0672L23.8916 67.3322V60.3378L22.3438 60.3465H0L9.23956 54.5743V51.6779L0.127373 45.8743H23.8916V21.8957C28.1753 20.0281 32.4583 18.1632 36.7387 16.2976L34.6693 16.323V5.40596L37.8726 5.33758C42.1248 5.24679 48.3811 5.40152 52.2413 3.64862C53.2565 3.18773 54.231 2.64792 55.2086 2.11421C56.2492 1.54672 57.3011 0.98911 58.4091 0.562996C61.8544 -0.762801 64.3821 0.456386 67.4201 2.11421C68.3985 2.64792 69.3734 3.18773 70.3884 3.64895C74.2986 5.42475 80.4639 5.24597 84.7568 5.33758L87.9604 5.40596L87.9691 16.323L85.9 16.2976L85.9743 16.33H85.9704L98.7372 21.8957Z" fill="white"/>
<path d="M91.0058 44.5317V26.9419L79.7567 22.0379L79.4742 15.9402L94.8458 22.6417L96.4979 23.3621V25.1519V44.5317H91.0058Z" fill="#AB8B3A"/>
<path d="M31.6222 62.1934V65.7725C40.822 75.0681 49.1945 81.8379 61.3139 86.7733C73.4329 81.8379 81.8057 75.0674 91.0054 65.7725V62.1934H96.4974V66.8874L95.7035 68.8083C84.8114 79.884 75.0452 86.646 61.3139 93.4976C47.5823 86.646 37.816 79.8848 26.9234 68.8085L26.1296 66.8875V62.1935H31.6222V62.1934Z" fill="#AB8B3A"/>
<path d="M43.1599 21.9119L31.6223 26.9419V44.5317H26.1296V25.1519V23.3621L27.782 22.6417L43.1536 15.9402L43.1599 21.9119Z" fill="#AB8B3A"/>
<path fill-rule="evenodd" clip-rule="evenodd" d="M92.0406 43.4967H95.4635V24.0399L80.5848 17.553L80.7606 21.347L92.0406 26.2643V43.4967Z" fill="#BA973F"/>
<path fill-rule="evenodd" clip-rule="evenodd" d="M30.5875 63.2273H27.1644V66.6823L27.8024 68.2265C32.8191 73.3141 38.1121 77.976 43.9518 82.1055C49.4618 86.0018 55.2906 89.316 61.314 92.3405C67.3376 89.3158 73.1661 86.0017 78.6761 82.1055C84.516 77.9762 89.8086 73.3143 94.8254 68.2265L95.463 66.6823V63.2273H92.0401V66.1976L91.7405 66.4999C82.5467 75.7894 73.923 82.7557 61.7042 87.7315L61.314 87.8912L60.9238 87.7315C48.7049 82.7559 40.0808 75.7894 30.8871 66.4999L30.5877 66.1976V63.2273H30.5875Z" fill="#BA973F"/>
<path fill-rule="evenodd" clip-rule="evenodd" d="M42.1246 21.2347L42.1204 17.5193L27.1644 24.04V43.4967H30.5875V26.2643L42.1246 21.2347Z" fill="#BA973F"/>
<path d="M114.819 48.1125L111.487 50.112L106.934 54.4909V55.7702L110.596 58.1068H98.1891L101.858 55.7702V54.4909L97.1345 49.9442L93.8035 48.1125H105.557L103.06 49.9442L105.712 52.3661L108.274 49.7747L105.777 48.1125H114.819Z" fill="#030304"/>
<path d="M72.7617 48.1125H85.8971C87.3943 48.1125 88.5744 48.2172 89.4286 48.4297C90.2861 48.6423 91.1256 49.0325 91.9456 49.5998C93.5273 50.7068 94.3171 51.9291 94.3171 53.266C94.3171 54.698 93.5052 55.8628 91.8779 56.7599C90.2533 57.6569 88.1447 58.1069 85.5524 58.1069H72.7617L76.4306 55.793V50.4418L72.7617 48.1125ZM81.5913 56.1301H84.0425C85.7724 56.1301 86.9195 55.9405 87.4895 55.563C88.0567 55.1854 88.3417 54.4232 88.3417 53.2806C88.3417 51.0164 86.927 49.8847 84.0954 49.8847H81.5913V56.1301Z" fill="#030304"/>
<path d="M61.3145 42.674V42.6737V42.6733V42.674ZM50.6142 48.1126H63.7496C65.2467 48.1126 66.4262 48.2173 67.2811 48.4298C68.1386 48.6424 68.9781 49.0326 69.798 49.5999C71.3797 50.7069 72.1695 51.9292 72.1695 53.266C72.1695 54.6981 71.3577 55.8629 69.7303 56.76C68.1058 57.657 65.9971 58.107 63.4048 58.107H50.614L54.2826 55.7931V50.4419L50.6142 48.1126ZM59.4434 56.1302H61.895C63.6248 56.1302 64.772 55.9405 65.342 55.563C65.9091 55.1855 66.1942 54.4233 66.1942 53.2807C66.1942 51.0165 64.7794 49.8848 61.9479 49.8848H59.4433V56.1302H59.4434Z" fill="#030304"/>
<path d="M50.9065 48.1125L47.2379 50.4418V54.7181C47.2379 56.0403 46.6529 57.0199 45.4833 57.6569C44.3164 58.2945 42.5218 58.6117 40.1001 58.6117C37.7131 58.6117 35.7687 58.2496 34.2645 57.5268C32.7622 56.8047 32.01 55.8675 32.01 54.7181V50.4418L28.3411 48.1125H40.5023L37.1707 50.4418V54.2482C37.1707 55.0683 37.4532 55.663 38.0209 56.0331C38.5854 56.4051 39.4925 56.5902 40.7373 56.5902C42.0196 56.5902 42.9542 56.4025 43.5365 56.0304C44.1188 55.6577 44.4111 55.063 44.4111 54.2484V50.442L41.0798 48.1127H50.9065V48.1125Z" fill="#030304"/>
<path d="M7.80913 48.1125H22.3871C23.9715 48.1125 25.2587 48.3553 26.2484 48.8372C27.2357 49.32 27.7305 49.9516 27.7305 50.7342C27.7305 51.8665 26.2609 52.6034 23.3244 52.9433C26.7458 53.3785 28.4575 54.2882 28.4575 55.6755C28.4575 57.2974 26.4206 58.1068 22.3494 58.1068H7.80896L11.4779 55.8151V50.4491L7.80913 48.1125ZM16.639 52.0436H20.8201C21.9472 52.0436 22.512 51.6989 22.512 51.0118C22.512 50.2596 21.9348 49.8847 20.7825 49.8847H16.639V52.0436ZM16.639 56.3346H20.7601C22.1372 56.3346 22.8269 55.9678 22.8269 55.2303C22.8269 54.4232 22.3123 54.0208 21.2797 54.0208H16.6389V56.3346H16.639Z" fill="#030304"/>
<path d="M86.0974 64.7688V67.177H77.327L78.9749 66.1359V63.7335L77.327 62.6782H82.9495L81.3016 63.7335V66.2873H84.0772L86.0974 64.7688Z" fill="#030304"/>
<path d="M77.7319 62.6782L76.2319 63.7269L74.6998 66.3537L75.748 67.177H71.3448L72.3921 66.2773L71.2649 64.3891L70.2312 66.3537L71.1296 67.177H66.7299L67.7055 66.3537L65.9683 63.5781L64.6937 62.6782H69.1925L68.1641 63.5781L69.3141 65.2949L70.3097 63.5781L69.3039 62.6782H73.8659L72.7784 63.4265L73.9516 65.1308L74.9541 63.4265L74.0898 62.6782H77.7319Z" fill="#030304"/>
<path d="M63.0448 62.6782L61.9673 63.4995L63.8494 66.1252L65.5491 67.1771H59.8804L61.443 66.2539L61.2382 65.9441H58.6484L58.4468 66.2539L59.8046 67.1771H55.6028L56.9269 66.1252L58.7799 63.4995L57.7245 62.6782H63.0448ZM59.8804 63.9829L59.086 65.2024H60.7274L59.8804 63.9829Z" fill="#030304"/>
<path d="M46.066 62.6783H51.519L52.3427 62.6748L53.3968 62.7445C53.9267 62.8096 54.3566 62.9557 54.6862 63.181C55.0158 63.4062 55.18 63.6671 55.18 63.9642C55.18 64.5346 54.5287 64.8967 53.2259 65.0483C53.6682 65.1575 54.0067 65.315 54.2429 65.521C54.4794 65.7268 54.7043 66.0613 54.9167 66.5247L56.0079 67.177H52.8175C52.5452 66.5247 52.2999 66.0453 52.0817 65.7408C51.9456 65.547 51.6304 65.4505 51.1367 65.4505H50.0421V66.1317L51.6935 67.177H46.0662L47.7176 66.1317V63.73L46.066 62.6783ZM50.042 64.5602H51.5156L51.9735 64.5534C52.4696 64.5534 52.7181 64.3906 52.7181 64.0632C52.7181 63.8493 52.6374 63.7066 52.4741 63.6322C52.3122 63.5592 51.9936 63.5223 51.5213 63.5223H50.042V64.5602Z" fill="#030304"/>
<path d="M36.5305 62.6782H43.0929C43.8063 62.6782 44.3856 62.7875 44.8312 63.0046C45.2757 63.2212 45.4984 63.5062 45.4984 63.8582C45.4984 64.3679 44.8369 64.6995 43.5151 64.8525C45.0553 65.0482 45.8258 65.458 45.8258 66.0829C45.8258 66.8131 44.9089 67.1771 43.0763 67.1771H36.5307L38.1824 66.1453V63.7302L36.5305 62.6782ZM40.5054 64.4476H42.3879C42.8952 64.4476 43.1493 64.2927 43.1493 63.9829C43.1493 63.6443 42.8894 63.4761 42.3704 63.4761H40.5054V64.4476ZM40.5054 66.3798H42.3607C42.9806 66.3798 43.291 66.2142 43.291 65.8822C43.291 65.5188 43.0593 65.3377 42.5947 65.3377H40.5054V66.3798Z" fill="#030304"/>
<path fill-rule="evenodd" clip-rule="evenodd" d="M71.8713 23.5133C72.3079 22.5091 74.177 16.0804 74.0142 15.6211C73.9694 14.5754 72.5264 13.1376 72.6009 12.736L78.5533 11.8057L77.5772 15.4465C77.6563 18.0562 78.2007 19.8173 77.748 22.3991C77.449 24.1044 77.2493 26.9217 77.0528 27.6317C76.8053 28.5252 76.2039 29.6737 75.7392 30.5058C75.6171 30.7248 75.5965 30.8701 75.4072 31.1726C75.2195 31.473 75.0259 31.5557 74.8811 31.8619C74.7273 32.1875 74.5893 33.1004 74.6202 33.4248C74.7677 35.0143 71.4326 40.3583 71.4193 44.5297H61.2818H51.2078C51.1947 40.3583 47.8591 35.0143 48.0066 33.4248C48.0377 33.1004 47.8999 32.1875 47.7457 31.8619C47.6014 31.5559 47.4078 31.473 47.2201 31.1726C47.0311 30.8703 47.0103 30.7248 46.8882 30.5058C46.4235 29.6737 45.8218 28.5252 45.5748 27.6317C45.378 26.9217 45.1782 24.1044 44.8791 22.3991C44.4264 19.817 44.93 18.1776 45.0098 15.5677L44.0735 11.8055L50.0262 12.7359C50.101 13.1376 48.6578 14.5754 48.6128 15.621C48.4496 16.0802 50.3195 22.5091 50.7557 23.5131C51.2492 23.9882 51.8895 25.6063 52.084 26.2479C52.1316 26.4042 52.1347 26.7846 52.2342 27.1601C52.3305 27.5236 52.2845 27.7852 52.5946 28.0911C53.8618 29.3415 54.8048 29.3868 55.6051 31.1104C55.6916 31.2951 55.9464 31.7276 55.9782 31.9024C56.005 32.0534 55.8964 32.5934 56.139 32.7446L56.2484 32.8069C56.9525 32.7463 57.3985 32.2689 57.9766 31.9761L58.2414 28.2472H57.7754C57.4134 28.2472 57.2161 27.1976 57.2161 26.8495L57.2291 26.4081L57.6556 26.1955L57.7754 23.7745C58.0684 23.3363 58.0557 23.1646 58.2359 22.651C58.3577 22.3048 58.8558 22.1831 59.1916 21.9296C61.0487 20.5236 61.5595 20.5096 63.4348 21.9296C63.7708 22.1831 64.2691 22.3048 64.391 22.651C64.5706 23.1646 64.5588 23.3363 64.8516 23.7745L64.971 26.1955L65.3975 26.4081L65.4108 26.8495C65.4108 27.1976 65.2138 28.2472 64.8516 28.2472H64.3859L64.6507 31.9761C65.2281 32.2687 65.6746 32.7461 66.3786 32.8069L66.4878 32.7446C66.7305 32.5935 66.6218 32.0534 66.6488 31.9024C66.6803 31.7274 66.9357 31.2949 67.0217 31.1104C67.8222 29.3869 68.7655 29.3416 70.0322 28.0911C70.3426 27.7852 70.297 27.5236 70.3929 27.1601C70.4926 26.7846 70.4954 26.4042 70.543 26.2479C70.7376 25.6065 71.3777 23.9884 71.8713 23.5133Z" fill="#030304"/>
<path fill-rule="evenodd" clip-rule="evenodd" d="M59.2136 2.65258C61.9532 1.59833 63.9921 2.79396 66.3483 4.07971C67.3742 4.63897 68.3986 5.20415 69.4626 5.68711C73.7033 7.61319 80.0844 7.47742 84.7086 7.57596L85.721 7.59737V13.8068L84.6985 13.8185C82.3906 13.8454 80.0286 13.9815 77.7275 14.1468C76.3643 14.2447 74.9959 14.3603 73.6395 14.5289C72.8161 14.6312 71.7406 14.7596 70.9548 15.0217C69.9264 15.364 68.9191 15.7687 67.9196 16.1867C66.9467 16.5937 65.9785 17.0131 64.9935 17.3899C64.7267 17.4926 64.4591 17.5911 64.1897 17.6855C62.0367 18.4429 60.5921 18.4429 58.4398 17.6855C58.1699 17.591 57.9019 17.4924 57.6355 17.3903C56.6503 17.0131 55.6824 16.5937 54.7095 16.1867C53.7098 15.7687 52.7029 15.364 51.6743 15.0214C50.8885 14.7596 49.8134 14.6312 48.9898 14.5289C47.6337 14.3603 46.2649 14.2447 44.9018 14.1468C42.6004 13.9815 40.2383 13.8454 37.9304 13.8185L36.9078 13.8068V7.59737L37.9204 7.57596C42.5447 7.47742 48.9264 7.61319 53.1667 5.68711C54.2307 5.20399 55.2556 4.63897 56.2807 4.07971C57.2367 3.55852 58.1954 3.04409 59.2136 2.65258Z" fill="#AB8B3A"/>
<path fill-rule="evenodd" clip-rule="evenodd" d="M59.5842 3.6178C58.6131 3.99168 57.6876 4.49046 56.7759 4.98793C55.7252 5.56119 54.685 6.13379 53.5938 6.62927C49.1996 8.62456 42.7035 8.50856 37.9421 8.61022V12.7842C40.4996 12.8137 49.5593 13.2258 52.0011 14.0401C53.0552 14.3911 54.0836 14.8037 55.1081 15.2321C56.0716 15.635 57.0298 16.0507 58.0049 16.424C58.2628 16.5225 58.5218 16.6184 58.7823 16.7099C60.716 17.3901 61.9121 17.3901 63.8458 16.7099C64.106 16.6184 64.3653 16.5225 64.6229 16.424C65.5985 16.0507 66.5565 15.635 67.5202 15.2321C68.5446 14.8037 69.5731 14.3909 70.627 14.0401C73.0689 13.2258 82.1285 12.8139 84.6863 12.7842V8.61022C79.9246 8.50856 73.4282 8.62456 69.034 6.62927C67.9431 6.13379 66.9031 5.56119 65.8518 4.98793C63.7464 3.83877 61.9596 2.70378 59.5842 3.6178Z" fill="#030304"/>
<path fill-rule="evenodd" clip-rule="evenodd" d="M57.4471 8.66711V10.2524V11.8371L55.2305 13.1171H65.0293C68.1027 13.0263 68.2724 10.4391 65.0293 10.2524C68.2724 10.0654 68.1027 7.47824 65.0293 7.38745H55.2305L57.4471 8.66711ZM62.58 10.6093H61.0207V11.1197H62.58C62.7201 11.1197 62.8348 11.005 62.8348 10.8649C62.8348 10.7242 62.7201 10.6093 62.58 10.6093ZM61.0209 9.38521V9.8952H62.5802C62.7203 9.8952 62.8349 9.78051 62.8349 9.64012C62.8349 9.4999 62.7203 9.38538 62.5802 9.38538H61.0209V9.38521ZM58.1274 8.75197H63.2606C64.8704 8.79926 64.9591 10.1547 63.2599 10.2526C64.9589 10.3505 64.8704 11.7056 63.2606 11.7531H58.1274L59.2886 11.0826V10.2524V9.42212L58.1274 8.75197Z" fill="white"/>
<path fill-rule="evenodd" clip-rule="evenodd" d="M47.3929 14.3558C48.9814 13.9186 48.4409 12.0631 49.8425 12.2387C49.8868 12.93 49.8946 13.2609 49.9448 13.6179C49.7476 14.6297 48.765 15.2311 48.5057 16.1815C48.0521 15.9774 47.8466 14.5596 47.3929 14.3558Z" fill="#030304"/>
<path fill-rule="evenodd" clip-rule="evenodd" d="M75.2359 14.3558C73.6468 13.9186 74.1872 12.0631 72.7858 12.2387C72.7416 12.93 72.7337 13.2609 72.684 13.6179C72.8804 14.6297 73.8633 15.2311 74.1228 16.1815C74.5761 15.9774 74.7819 14.5596 75.2359 14.3558Z" fill="#030304"/>
<path fill-rule="evenodd" clip-rule="evenodd" d="M61.5189 70.9292L62.767 74.7952L66.8289 74.7871L63.5381 77.1686L64.8006 81.0294L61.5189 78.6357L58.2372 81.0294L59.5001 77.1686L56.209 74.7871L60.2711 74.7952L61.5189 70.9292Z" fill="#AB8B3A"/>
</svg>
